<svg width="15" height="16" viewBox="0 0 15 16" fill="none" xmlns="http://www.w3.org/2000/svg">
<path fill-rule="evenodd" clip-rule="evenodd" d="M8.34315 0.92894L14.7071 7.2929C15.0976 7.68342 15.0976 8.31659 14.7071 8.70711L8.34315 15.0711C7.95262 15.4616 7.31946 15.4616 6.92893 15.0711C6.53841 14.6806 6.53841 14.0474 6.92893 13.6569L11.5858 9.00001L1 9.00001C0.447716 9.00001 6.9206e-07 8.55229 6.43778e-07 8.00001C5.95496e-07 7.44772 0.447716 7.00001 1 7.00001L11.5858 7.00001L6.92893 2.34315C6.53841 1.95263 6.53841 1.31946 6.92893 0.92894C7.31946 0.538416 7.95262 0.538416 8.34315 0.92894Z" fill="#22253B"/>
</svg>
